<?xml version="1.0" encoding="UTF-8" standalone="no"?>
<!-- Created with Inkscape (http://www.inkscape.org/) -->
<svg xmlns:rdf="http://www.w3.org/1999/02/22-rdf-syntax-ns#" xmlns="http://www.w3.org/2000/svg" height="88" width="179" version="1.1" xmlns:cc="http://creativecommons.org/ns#" xmlns:dc="http://purl.org/dc/elements/1.1/">
 <metadata>
  <rdf:RDF>
   <cc:Work rdf:about="">
    <dc:format>image/svg+xml</dc:format>
    <dc:type rdf:resource="http://purl.org/dc/dcmitype/StillImage"/>
    <dc:title/>
   </cc:Work>
  </rdf:RDF>
 </metadata>
 <path d="M99.619,86.853c-7.137-2.495-11.914-8.408-13.202-16.344l-0.55968-3.4489h7.0058c6.9604,0,7.0097,0.0192,7.5968,2.9546,0.817,4.085,4.8084,6.4336,11.038,6.4949,8.815,0.0868,13.76-3.2851,12.169-8.2978-0.77504-2.4419-3.6154-3.6422-14.761-6.238-5.1079-1.1896-10.52-2.7911-12.027-3.559-2.5015-1.2744-3.0679-1.1815-6.5,1.0663-12.18,7.9771-30.194,4.7658-37.748-6.7296-1.6564-2.5204-3.2587-4.607-3.5607-4.637-0.30201-0.03-1.1047,1.482-1.7838,3.3598-3.081,8.51-12.788,13.201-25.591,12.364-8.497-0.555-14.3-3.235-18.272-8.439l-2.808-3.679-0.29762-25.877-0.29761-25.877,6.7976,0.29678,6.7976,0.29678,0.5,23.099c0.37113,17.146,0.84279,23.511,1.83,24.699,2.3008,2.7675,7.5456,3.9473,12.098,2.7214,6.6703-1.7961,7.0718-3.4407,7.0718-28.97v-22.05h7,7l0.04004,8.25c0.03942,8.123,0.06431,8.2038,1.6166,5.25,2.4514-4.6646,7.4522-9.5627,11.843-11.6,2.9524-1.3699,6.357-1.8592,13-1.8685,8.1556-0.0114,9.4841,0.26507,14.16,2.9466,6.7245,3.8568,9.7136,8.0092,11.713,16.272l0.66547,2.75h-7.3182-7.3182l-1.2691-3.5096c-1.505-4.162-5.4279-6.4904-10.935-6.4904-9.3045,0-14.618,8.327-13.805,21.633,0.72573,11.878,5.0642,17.366,13.727,17.366,6.6249,0,10.682-3.5524,11.978-10.488,2.1716-11.624,9.7136-16.982,23.93-17.001,12.956-0.01705,19.965,4.1754,23.481,14.047l1.4043,3.9422,0.0439-7.25,0.0439-7.25h21.5,21.5v6,6h-14.5-14.5v6,6h13,13v6,6h-13-13v12.5,12.5h-7-7v-5.0712-5.0712l-3.3617,3.5644c-5.0127,5.315-9.0082,6.5906-20.356,6.499-5.3802-0.0434-11.132-0.55085-12.782-1.1276zm36.5-34.671,0-7.8772-4.4405,0.50051c-6.4552,0.72759-8.963-0.20941-10.616-3.9668-1.741-3.9565-6.6099-6.0034-12.417-5.2202-4.9507,0.66772-7.5261,2.9127-7.5261,6.5605,0,3.5485,1.1182,4.1312,14.063,7.328,12.601,3.1118,16.178,4.6434,18.595,7.9607,1.0131,1.3907,1.9545,2.5428,2.092,2.56,0.1375,0.0173,0.25-3.5133,0.25-7.8457z" fill="#fefefe"/>
</svg>
